<svg xmlns="http://www.w3.org/2000/svg" viewBox="0 0 24 24" fill="none">
  <path d="M12 2C10.9 2 10 2.9 10 4V4.29C7.12 5.14 5 7.82 5 11V17L3 19V20H21V19L19 17V11C19 7.82 16.88 5.14 14 4.29V4C14 2.9 13.1 2 12 2Z" fill="#4285F4"/>
  <path d="M12 2C10.9 2 10 2.9 10 4V4.29C7.12 5.14 5 7.82 5 11V17L3 19V20H12V2Z" fill="#EA4335"/>
  <path d="M19 17V11C19 7.82 16.88 5.14 14 4.29V4C14 2.9 13.1 2 12 2V20H21V19L19 17Z" fill="#4285F4"/>
  <path d="M5 17V11C5 9.3 5.7 7.8 6.8 6.7L12 12V20H3V19L5 17Z" fill="#FBBC04"/>
  <path d="M19 17L21 19V20H12V12L17.2 6.7C18.3 7.8 19 9.3 19 11V17Z" fill="#34A853"/>
  <path d="M10 21C10 22.1 10.9 23 12 23C13.1 23 14 22.1 14 21H10Z" fill="#EA4335"/>
</svg>
